<?xml version="1.0" encoding="UTF-8" standalone="no"?>
<!-- Created with Inkscape (http://www.inkscape.org/) -->

<svg
   width="500"
   height="500"
   viewBox="0 0 132.29166 132.29167"
   version="1.1"
   id="svg1"
   xml:space="preserve"
   inkscape:version="1.4 (86a8ad7, 2024-10-11)"
   sodipodi:docname="Add_cart.svg"
   xmlns:inkscape="http://www.inkscape.org/namespaces/inkscape"
   xmlns:sodipodi="http://sodipodi.sourceforge.net/DTD/sodipodi-0.dtd"
   xmlns="http://www.w3.org/2000/svg"
   xmlns:svg="http://www.w3.org/2000/svg"><sodipodi:namedview
     id="namedview1"
     pagecolor="#ffffff"
     bordercolor="#000000"
     borderopacity="0.25"
     inkscape:showpageshadow="2"
     inkscape:pageopacity="0.0"
     inkscape:pagecheckerboard="0"
     inkscape:deskcolor="#d1d1d1"
     inkscape:document-units="mm"
     inkscape:zoom="0.65035585"
     inkscape:cx="233.7182"
     inkscape:cy="335.96992"
     inkscape:window-width="1366"
     inkscape:window-height="745"
     inkscape:window-x="-8"
     inkscape:window-y="-8"
     inkscape:window-maximized="1"
     inkscape:current-layer="layer1"><sodipodi:guide
       position="0,132.29166"
       orientation="0,500"
       id="guide1"
       inkscape:locked="false" /><sodipodi:guide
       position="132.29166,132.29166"
       orientation="500,0"
       id="guide2"
       inkscape:locked="false" /><sodipodi:guide
       position="132.29166,0"
       orientation="0,-500"
       id="guide3"
       inkscape:locked="false" /><sodipodi:guide
       position="0,0"
       orientation="-500,0"
       id="guide4"
       inkscape:locked="false" /></sodipodi:namedview><defs
     id="defs1" /><g
     inkscape:label="Capa 1"
     inkscape:groupmode="layer"
     id="layer1"><circle
       style="fill:none;stroke:#321680;stroke-width:2.78123;stroke-dasharray:none;stroke-opacity:1"
       id="path4"
       cx="66.145836"
       cy="66.145836"
       r="61.322414" /><g
       style="fill:#321680;fill-opacity:1"
       id="g4"
       transform="matrix(0.08090706,0,0,0.08090706,29.414028,106.59936)"><path
         d="M 440,-600 V -720 H 320 v -80 h 120 v -120 h 80 v 120 h 120 v 80 H 520 v 120 z M 280,-80 q -33,0 -56.5,-23.5 Q 200,-127 200,-160 q 0,-33 23.5,-56.5 23.5,-23.5 56.5,-23.5 33,0 56.5,23.5 23.5,23.5 23.5,56.5 0,33 -23.5,56.5 Q 313,-80 280,-80 Z m 400,0 q -33,0 -56.5,-23.5 Q 600,-127 600,-160 q 0,-33 23.5,-56.5 23.5,-23.5 56.5,-23.5 33,0 56.5,23.5 23.5,23.5 23.5,56.5 0,33 -23.5,56.5 Q 713,-80 680,-80 Z M 40,-800 v -80 h 131 l 170,360 h 280 l 156,-280 h 91 l -176,318 q -11,20 -29.5,31 -18.5,11 -40.5,11 H 324 l -44,80 h 480 v 80 H 280 q -45,0 -68.5,-39 -23.5,-39 -1.5,-79 l 54,-98 -144,-304 z"
         id="path1"
         style="fill:#321680;fill-opacity:1" /></g></g></svg>
