<?xml version="1.0" encoding="UTF-8" standalone="no"?>
<svg
   width="1500"
   height="1500"
   viewBox="0 0 396.87499 396.87501"
   version="1.1"
   id="svg979"
   inkscape:version="1.3.2 (091e20e, 2023-11-25, custom)"
   sodipodi:docname="Simbolo 2.svg"
   inkscape:export-filename="Simbolo 2.png"
   inkscape:export-xdpi="96"
   inkscape:export-ydpi="96"
   xml:space="preserve"
   xmlns:inkscape="http://www.inkscape.org/namespaces/inkscape"
   xmlns:sodipodi="http://sodipodi.sourceforge.net/DTD/sodipodi-0.dtd"
   xmlns="http://www.w3.org/2000/svg"
   xmlns:svg="http://www.w3.org/2000/svg"
   xmlns:rdf="http://www.w3.org/1999/02/22-rdf-syntax-ns#"
   xmlns:cc="http://creativecommons.org/ns#"
   xmlns:dc="http://purl.org/dc/elements/1.1/"><defs
     id="defs973" /><sodipodi:namedview
     id="base"
     pagecolor="#ffffff"
     bordercolor="#666666"
     borderopacity="1.0"
     inkscape:pageopacity="0.0"
     inkscape:pageshadow="2"
     inkscape:zoom="0.25000001"
     inkscape:cx="499.99999"
     inkscape:cy="813.99998"
     inkscape:document-units="mm"
     inkscape:current-layer="layer4"
     inkscape:document-rotation="0"
     showgrid="false"
     inkscape:window-width="1366"
     inkscape:window-height="705"
     inkscape:window-x="-8"
     inkscape:window-y="-8"
     inkscape:window-maximized="1"
     units="px"
     showguides="true"
     inkscape:showpageshadow="2"
     inkscape:pagecheckerboard="0"
     inkscape:deskcolor="#d1d1d1"><sodipodi:guide
       position="0,396.875"
       orientation="0,1500"
       id="guide1544"
       inkscape:locked="false" /><sodipodi:guide
       position="396.875,396.875"
       orientation="1500,0"
       id="guide1546"
       inkscape:locked="false" /><sodipodi:guide
       position="396.875,0"
       orientation="0,-1500"
       id="guide1548"
       inkscape:locked="false" /><sodipodi:guide
       position="0,0"
       orientation="-1500,0"
       id="guide1550"
       inkscape:locked="false" /></sodipodi:namedview><metadata
     id="metadata976"><rdf:RDF><cc:Work
         rdf:about=""><dc:format>image/svg+xml</dc:format><dc:type
           rdf:resource="http://purl.org/dc/dcmitype/StillImage" /></cc:Work></rdf:RDF></metadata><g
     inkscape:groupmode="layer"
     id="layer4"
     inkscape:label="Globo"
     style="display:inline"><circle
       style="display:inline;fill:#f4edff;fill-opacity:1;fill-rule:evenodd;stroke:none;stroke-width:1.5;stroke-linecap:round;stroke-linejoin:round;stroke-miterlimit:4;stroke-dasharray:none;stroke-opacity:1"
       id="path1580"
       cx="198.42923"
       cy="198.4375"
       r="197.67633" /><path
       style="display:inline;fill:#321680;fill-opacity:1;fill-rule:evenodd;stroke:none;stroke-width:1.5;stroke-linecap:round;stroke-linejoin:round;stroke-miterlimit:4;stroke-dasharray:none;stroke-opacity:1"
       d="m 206.7916,363.83892 c 0.5286,-7.27343 -7.27716,-5.98294 -13.13724,-6.62408 -11.57789,-0.71719 -11.10869,-3.46536 -19.82234,-10.81763 -9.68527,-7.28835 -12.86493,-10.83669 -18.49233,-21.46587 -10.2876,-19.63854 -12.60326,-22.94933 -16.05142,-22.94933 -3.391,0 -3.55775,1.57588 -1.35056,12.76294 2.03895,10.3343 6.45336,14.62354 1.14828,17.68643 -3.47147,2.00425 -5.53857,-2.06353 -9.27973,-5.63192 -7.14814,-6.81798 -13.3887,-16.83612 -15.59733,-25.0388 -0.98054,-3.64167 -1.03868,-4.73341 -0.41331,-7.7611 1.06916,-5.17621 0.90261,-7.36738 -0.778,-10.23503 -3.58591,-6.11873 -16.409239,-10.16531 -28.505537,-10.20177 -6.796677,-0.0204 -12.873157,-1.54643 -16.386412,-5.6363 -2.640133,-3.07343 -6.139165,-9.9809 -7.187149,-14.18821 -0.619763,-2.48814 -0.513399,-3.48549 0.88679,-8.3151 1.749154,-6.03327 1.203316,-8.56066 0.818614,-9.99639 -6.205836,-23.16049 21.750385,-10.39574 8.789362,-46.53301 -3.754994,-22.28362 2.473539,-45.55454 12.234875,-62.46167 13.412155,-23.23055 -5.394566,-10.09598 -7.729492,-18.81004 -4.759762,-17.763673 13.082928,-15.992894 29.322389,-15.992894 23.54753,0 52.39624,4.750671 48.48943,-30.526321 -5.38591,-20.100473 -29.36955,10.387816 -36.18678,3.570584 -19.258628,-19.258643 54.37853,-43.312478 94.825,-43.312478 55.9817,0 136.86261,43.544818 110.19654,80.366129 -9.01106,12.44274 -19.03008,-17.72991 -37.41817,-26.908567 -11.39212,-5.82843 -30.29666,-3.282489 -34.86372,1.485518 -3.35395,3.501509 -4.22277,8.214801 -3.22746,17.508618 1.06426,9.937691 6.48552,20.259531 -2.59533,24.861041 -6.23994,3.16192 -9.92564,3.74226 -24.2916,3.82485 -14.35654,0.0825 -18.1477,0.67183 -24.26527,3.77176 -12.53316,6.35087 -16.16017,20.57984 -8.92865,35.0276 9.31421,14.24062 30.85138,27.14959 47.9115,30.0402 20.03588,2.05965 15.99331,21.74707 12.64179,27.84375 -6.00611,10.92564 -5.76379,17.18725 -0.0474,23.95137 3.40538,4.02955 11.62905,4.654 21.58698,14.61193 4.92858,4.92858 -3.35483,9.89843 1.04532,15.19826 1.69667,2.04359 5.06228,1.94889 8.39617,8.33859 4.55879,8.73732 -6.37664,8.71485 0.26456,28.738 3.96915,11.96695 12.48546,18.52673 12.51768,27.20408 0.0283,7.61793 -2.15744,14.31628 -7.10852,18.85554 -19.43843,17.82158 -78.96969,29.19909 -77.41153,7.75932 z"
       id="path850"
       sodipodi:nodetypes="ssssssssssscsssssssssssasssssssscssssssas" /></g></svg>
